<mxfile host="app.diagrams.net" agent="Mozilla/5.0 (X11; Linux x86_64) AppleWebKit/537.36 (KHTML, like Gecko) Chrome/128.0.0.0 Safari/537.36" version="24.7.14">
  <diagram name="PÃ¡gina-1" id="JJCy2TIlvsyZjUuUj7gz">
    <mxGraphModel dx="2191" dy="1962" grid="1" gridSize="10" guides="1" tooltips="1" connect="1" arrows="1" fold="1" page="1" pageScale="1" pageWidth="827" pageHeight="1169" math="0" shadow="0">
      <root>
        <mxCell id="0" />
        <mxCell id="1" parent="0" />
        <mxCell id="Lb4S4Lgipoe_CazuFKkx-36" value="" style="rounded=1;whiteSpace=wrap;html=1;" vertex="1" parent="1">
          <mxGeometry x="20" y="444" width="521.62" height="325" as="geometry" />
        </mxCell>
        <mxCell id="Lb4S4Lgipoe_CazuFKkx-35" value="" style="rounded=1;whiteSpace=wrap;html=1;" vertex="1" parent="1">
          <mxGeometry x="20" y="12.5" width="521.62" height="325" as="geometry" />
        </mxCell>
        <mxCell id="Lb4S4Lgipoe_CazuFKkx-34" value="" style="rounded=1;whiteSpace=wrap;html=1;" vertex="1" parent="1">
          <mxGeometry x="20" y="-432.5" width="521.62" height="325" as="geometry" />
        </mxCell>
        <mxCell id="Lb4S4Lgipoe_CazuFKkx-3" value="WEB SITE" style="rounded=0;whiteSpace=wrap;html=1;fillColor=#6a00ff;fontColor=#ffffff;strokeColor=#3700CC;verticalAlign=top;" vertex="1" parent="1">
          <mxGeometry x="90" y="-362" width="430" height="240" as="geometry" />
        </mxCell>
        <mxCell id="Lb4S4Lgipoe_CazuFKkx-7" value="" style="shape=flexArrow;endArrow=classic;startArrow=classic;html=1;rounded=0;fillColor=#fa6800;strokeColor=#C73500;" edge="1" parent="1">
          <mxGeometry width="100" height="100" relative="1" as="geometry">
            <mxPoint x="304.5" y="442" as="sourcePoint" />
            <mxPoint x="304.5" y="342" as="targetPoint" />
          </mxGeometry>
        </mxCell>
        <mxCell id="Lb4S4Lgipoe_CazuFKkx-8" value="" style="shape=flexArrow;endArrow=classic;startArrow=classic;html=1;rounded=0;fillColor=#fa6800;strokeColor=#C73500;" edge="1" parent="1">
          <mxGeometry width="100" height="100" relative="1" as="geometry">
            <mxPoint x="304.5" y="10" as="sourcePoint" />
            <mxPoint x="304.5" y="-90" as="targetPoint" />
          </mxGeometry>
        </mxCell>
        <mxCell id="Lb4S4Lgipoe_CazuFKkx-9" value="XML" style="shape=document;whiteSpace=wrap;html=1;boundedLbl=1;" vertex="1" parent="1">
          <mxGeometry x="334" y="-70" width="86" height="50" as="geometry" />
        </mxCell>
        <mxCell id="Lb4S4Lgipoe_CazuFKkx-11" value="" style="shape=image;verticalLabelPosition=bottom;labelBackgroundColor=default;verticalAlign=top;aspect=fixed;imageAspect=0;image=data:image/png,iVBORw0KGgoAAAANSUhEUgAAAMYAAAD/CAMAAACdMFkKAAAAe1BMVEX///8AAACSkpLHx8e7u7sLCwv19fXg4ODp6en7+/v5+fns7Ozw8PBmZmbNzc3Z2dnV1dWIiIjQ0NB1dXU9PT1sbGxSUlJbW1udnZ1JSUmrq6tgYGChoaEfHx97e3u3t7csLCw0NDRNTU0ZGRmHh4coKCg7OzsWFhYzMzPAGFf4AAAXVklEQVR4nO1daXuqPBMmAQWVRWURWdW69P//wjeTBRII2D6nCn2vzodzWqrt3Elmn4yGoaXsgk6PMND/8LeQg1BK/qvQdWpO/ok+KArDSFA9MSf/QjZC7IsARdNy8k8UoHhlmVvHzQSe30nIqxCjx9Ss/AthlHEY8dSs/BOVHzcGw5yak38il2/GrxYNIO//AwbHYU/Nxr+STWGcfjuOgEtHmeTJvST/V+upWfovlBAIRyTTYWqW/gOFhO8wJ//cTMe+UhiLqXn6Nq2SZg92zja7068uU3P1XdojHRVTs/VNwloUvy34yPUoiIxvpmbtG5R2uc9aXHn9a5BcuzDIM7Nqv71Umb+cmskv0KUDg21AvZCfRdbETD4nvwMj5c8T5ensI5GlzG2OF4geIefREZrZhyKC0c+UOoZRpDwVNHf96zA2sRNkGBf13mTeVNyBcazn7f2yOLzKPlqWT3vDOINAZPvtXSM2M6R19/QI5VSw1T8rT+eqsZYnHQavZqZi2bOO+WpihnW06dlw9NjVbUp6vXZ6L5iZylriruFDi8py2Q+vXDFVhtnDcfSnY7pHVpe70HJdM8PXXUEFnOG4omVXZdFDh52J2eek2u4ytR3JJUQ1cd7p0SJRoayqokNc7XZ4V3nH4yyk/VNGUdj4AykUkXAWXia+DQvsqzkGAjTcT8K6RI0HkkSaM8Po04bNOGATDpDDt8fa8t9AM0KL1J0OAxBlNPfX2SAKQoessdyg0ohmQ00lx+avyScttaWgcexesCEdq1ThD15pGXH7rG5eeZkSyDKrFoMY8robKZlEmAIbtw/O0svDt3Iu0Xo3vA8VGDgbH0o4/ENSXLSvvxTJRMnfQYngR2n7gVLfup93Qyhkq1O6xuY0xcFKtBBOV4vp1NU2feJxEG2bh60TQM4aenvKd33rIbiHxb7lw39iD8wTT/Bud1y8SuP49ii3i+IuuPYtokZv49lCO6XOSfP9niVRYpGKeBt5MgRYzUj43tmaWoPhdd3iW3OKWtrj5IEu2St57lPrsYYkLGWyjnl0QURiU2RareOaqSRR0/u4JWMkZicpZN/RpVwhXVFjZZtZ1UrzLTMJnMn9W5Y9T8RBZmET05YmMJvwHywtXIVVqFZuogOJxgPiVk6eE93xo73eRZ/hRmyOONiY+0xWL6KKs22jymo0ecvShckwJBKYSmJuldgE+xAqFpodJKyKizu9bDwIWy70TqEdf7KyqpvspnZBdPQS0PQNS4jFQ2go6dRxUyInAwXdifSmr0QRR/XIy8f8ycb2syry4MtVbycoVjsLVdV06+3Puymm/FPjwWuUzNetyMNQ4r+sdt4xGmD3Vr2PYT3VVL+ymIf1JLDSXy5UaykyIXrb4EBsgbx3sqwjUFFh42fHvhs81GOUiIqmPj14gLM4g2IznCHHR+hs12iEIn2ugATjhrVC5zcz3SdwOe4bkN7PYRCDSagM5aujM4cOBvCsh7M6vmHWIyVLD2XmzpxD45U9CIEQl93BUK5Ewc7Ec4Bh6A5TvLWyYncWHu5gDEtcAGTcqSMwNfW9DThm1DvE6EkJnOxXAspuBgU0VwVwYxbj8BGuiT0Rlcqt/r2I1jfO07u4hJQgguzCFvFGYjDu3OrRxC3qRaaY+sLFLGo1ivsXrYlJAworGmjn/EXE8zLivPdeqon9WdQAO4UwEjltmSk8h+12xLDiAxrL7m/TFAQhX906IfEiYY5UGaGmtkcQXYb00WYepeUd+ijLJhH9UFqqRFIh7afKAwHLbWKuSclHl4NO6xJaNBp3j05d71DAcqfLocu00iI41bbA4KYmgZCWnfcJUXFm0t161KFofupUgY3vST9vYPPtsGdy7UbqkrSWZi4MCCeyWUfHsM+LnnXg0eB+Di6uoZaT8YoVAnm2I7BY9YKYc2fXDWIDdqysWfiGRr9biqhZIc9luafJq8ew30S02Dw62KmBoNa82tD/GiW0IT+LDRfyOhpTzbKe8QyyuJQw3QDEDg/Y7saeVVsjQQvCrosHXQ4zQgOu45sJnMCFzUosoVR4SRwD3bfxUEJBUDYLp0p21k1e8LgYy9QBb8mCaOJJWGROnzdk1FbOYskVOWy29L9n7zbn0kEp9T03dCcPTdDFd+NqqFDWrWZaupC0mzzhxoh65lEpdgT+yWm6wclA7AMjU7w/ByxhTFWwb9dEQ8zDjLOY4yhnST7hMXSvmszoLY1tK+cuyAKrEGROAs7MBDzriAh1guRuW+YW7iT+fMtp3BEbtooWc4o1TSrMpP0+RGcDmY3GWjB7trtIdT03UqJxHy08Cms3i7oZIyIcm+2x2Y4H9WfBoBM8VwNTkUbOTsIBmhnijKUPWYh5GA5IKmMjd1vpAA4hhUUeEXS03hznhuSSgA4TviLuV9ImIqKliOtktB2RpUs5JfsUGhtytBJsIsdr3S1AzPYm36G5aFzwYrFhKdmelfFBYJjcwdotDHTZS9IsYKzRIkMfU/HdIVj5tb0SQp6m4B+Sh2TVaegR7msiOXDMhI0AOTLpO13j9MTreh8hKCqbBm9Sh0QJOT51ThYbeE3AteI3ArkDteEwigwU3Tx8XF7N3LpN4fIhgm+QauhzufGOwrP4wZ4dMGz4JHKaRcbNYKFqZmDhkBA6BdCgm6N8y7bIo+ldSbdG1ABuNzY5WLO57cQWXGCIdvhMzoxyhyAj39qGNkU4k6yCwbzcbaOqPNu8Qf0F35FFMyd5DJ7TGryrDoFtPM2hVEMJTkzcSS9UYMqPMTphydHqkm04RMZnYsdZSnpphAoOg/cwWGt8LAczzikBO3mrgqCUuhfqRRPQqIH4YpBsYl1mIxxLtvzdU8UsxDOvaRYFQEYetW1KLyicqvqzQmWQjLtN1VzSCtQhOaPOzRpMDcqC6LCm501LJnQ0zYRKVFSHXoMxpSOx5KPVmNlEgKBciRubKdtB5Jf1H7p4vIzvzcYfgSXdb5Ev156A8zVYjcBifshQ1rme0anaoYORIzlrxc1BsIc4CdYbMzvX00vu2/vSh4nw4m5UoWirTNx4sO1Y9to9P+dRkKUUEzlW7Xgr19WI7fAdspPTt4cJsmm8p9BdeEtLkVWj1+RUvZSWYP7nUeYASogZk3qTPIrpylTUOsmNVe0YF3TbGuoNoT1yHDSP+jgl4kApvUk8VVIxIMwgQoRrrtS1R3tjHv1hnC5EUnX2bwdJAzApD+Y8ElGRzUixBZCTt3k3RMKOgTk8eCXPtrHcjjlcx3CraTZ0IbZCC4PsiN0C9IyD6pwzcFNx3aOAdeYyOupv0xEXEoHPKHVYseh3NlEHtDofm1k8H2ttLyLxO1AFMtKmp8yM5k9m466D3aiNpjfXajtKLMPOuL/1KNgXSuhKnZjZ+Llgxlf9tp6Fg2ka2qwkT15uQbJpym42CSvwrDy5d8+CgxWTKJV7t5Iikz3ED3LSznO4PicIgxco5RYyZ9HoIJf7v8QGnirFpyUeV2rOaoougrIAZsxSUcgb4W1KB7pauO0Tb2Y+x6qmhRci5pG0J9y/3Qrpv2mk2YYE4nyMR0T1EpJxXFmd6ePWqq5+UAseSzybRChFsKSdxbdGLzHl6sotffoC7OfpjZyO0xUuMXZu2JzYKZIHuWFdaG7PoxWUEigoVtBo9O6Vr74SHka5IgoBZLOq+WRJQCY2yn2CD2d1pRq26wArpvyR0i7LmdT7qU8edW7bVLxQ2fWz5DPkwObU83FK+H1fdem5weteS+uFSxHrnZkDAa92ry00pkBIuP4Z4AXC3JFX3ujSlqD+NYmJiOjbZN9vGct4DYHwaeaL5llLsDfpfBIMcKwCzXzcu7h/SvjdnhCUdxQHhOYaovlE5iaV8h4M4qls2FDsknC6i7vKylhitmFzqflXdPCRggCzIW/JWXxvGBZOO70WkCYFmzMXrwQaezrTTCuLi7XJU+9hP1l4hY0gB28uHTE2OOTKRAjYjNIMcioaLtupY7fA6dLcQoFmUyzIQOmqQxsj4ix+MofxmHKv/SPrvq1mb55L8BGjE+EnbpHAQxsG7QES9phqXazIx5Vm3tKu8E9HNxYvNW4t95ZWdLppZtQnAODW5Lud7O6yYDGfzcxZl3HehoGNRNtFCe6URa/bGEWoKZ7nPWU8GfnsxkB7qzxtkx8eXEFZVSd0T31n7ffSbVQtz6QREdNpCQFq6cimgdKjtCiIM7tsmgI+FK1lg4mci76K6MHozKl7tBc3oyqVLhooygmjw2aBHrOoQy3Z/Rpp7qHaAhCrCeuTHGvwbOkcLjHDgQLD4Phi0S81P0V06lm0NGoFmLz4PAUxC4VlceFFAxT69nkIB9mPK9Fz5zmUzTO2nv2xvgMkO4VEqGLoOZtDngHuKK+f4rgaGxNfiKlcyDYdnMtbPnJX+42UMkHVfcqIAxPckuDCB3QVYGLUWr/QDjOo4kA+pO7NY678EN2XhpOjA+grq0lWq5N5HK4cJpmjqVLN9sM2Ff16BV3l+cI8Bg2OuyrTNs/SxZOnfuCM78UXXYIbXtAMEJOIya7xDltdfpcFc4gnb5FxEPdwV8NzewBJYTr6KwR2StsevphsADN1ekViYh0Jg3wfw8FoUeps99o8Qfz4/G8t4ewe9q9pKSUnPITTwsdkhz5XQler39tw1/2CTUATw+WzVea5l8OLinAgwId6Y5zpn8EN8zER9aKQ493F0N0Urg3wmF1vDNSrrk3JHnuHinWbuk7iZHDavTA+yWB9rckSv64NZd2dIaG7UmsaQTlcBGyXotIWoM1MXLl4pYvfuOyX/odESDRy/NeS7ekj2aPsKFbjlaSY8r7SOlW4OpCw6tM09tmABFhlLn20VSavensyX+1NOiK+CFGk644pT580lwKerVhsKqzSJe09TsrHvRJaIRSfd6NeonwxURUFH2mxhwjqYY8M9qecL9HSsGgseK7ko6L4mgdsupIK0am6n/ZlHHJ8qyAn7klwJh7GyEh5SI2skONIpj9u5UGnIDgV4NlvLXma3/Lnt6iGQffO59E1rMcwL8COsUUJY5cIUkqv5bX50mU2NMqopRtmVQZqTsLaD4K9WRcpLn5CB6wIa4lroXBl1ONAgBYRKv3k5jYHCbdh1FaeoX324jjve21JFes+COEnVLJ9hOpYja4rwxoZVEkpPqKqpFMZbEhngQx48seRiCnszQly/Gx34LrkzH9J2YjO7XSjS/cz85jMkl6fjcKNERBhX8Rq/r1DH7TCaSPJAh5TsZ5uiXQ1EdBcgXB6TjGcZN4oz57+CAzmOFTOpor2hosTWxeuN4e/MpLSWJ0SI12QmNfigcsNm3aQCfvzeSRwbpd4l9aWaWY03OqcpoPXlLt+sE0TlO3RNyxQ/DXY36Oaj6sC2WNJIRdfGAmy1rD8pW4+1jdo9LLSNwnSbYuC7bWL0cNa73HLHnDbSTSC3fFQ6KI0QNXmjP47/awLTCuBfDw+fAOh6rbwRjlYGMlnTOLJ5wp3kC4/7nW5KVn1R8p8qGWKLhlVqLbWMLZB1jEY/jyZUSo9bL4mP2HDp0BE3BuEDIpXwKDNgd7q/07l1XrxdUn64VUnTE+Xu+vN9f8Jit+T7HIK4D66sk+nc8w0/kIC4hkRB3htrJz68tbmB58rqigsTNj/dWBmuIrzQx5eM9PJzt/CUE35SWNBVgnPKKkyX3V+lvs6y2prb2+Wq6Xjp0f4ZCJt+iucQ43HMYsqEbooCnFmBv3Euru1iEiFSlC5OHgH75pNn/SVydlbxS6+iM+uW3weD14chmGcX3ou5TFM62AeQwaHybW3ZpbuwvwojdEoo0se7lKyVXMoSn2b1uu5zIv5oz/6oz/6oz/6oz+agOrLWzqknPjwwn6ZPWSd3hCRQVLlZbUal2WfXn5N0aTR1osaLpeigPni2HLPs44vgeG39yBeeRd5nTUx4fMcbYVu3jUtSGRvmYR83zcpWVZdZ0WKd9fQS6Lbo/nUVaV154WJFvlq4XMYujyElrRveF3eTvmI8Ocw9JM4+tR0qpXy09fBUErUX6gmBV/Lrrbd8rWUxnhhH0QglWe/VBSTa0MeLoDSFONrFR/aioTcj5a9AwaR8aak8LULhI6WWUYmr+MpzR8N8Be3o4oN+eKFg6bnR2fO2JqoFiJ/DwzjezCMMRhsypPqdphvglF9D4Y3BoPWfdU8qrh9/epO1OJ7MHZjMOgR6qjWN8GwvgcDj8II+jrpTYfK/EkYcKmps+6L3whjibvNdr8SRp/+YHyH/mB8iTiMV9eF3gTj1Zf5OIyvtn39wXgp/RQMeyC++10w6qFU1++CEQ/9it8F4zTUAMdhvHoA/M/AWA1K/XMYSwt70fl8DLMxb97E8fF+OkeHEFuare3CcMft7QAMdRimTE9grDO5EWdoBoGjDnNG0JGshSHyVDRpcL4c4jisCO0oScgGYESDx38URo+9m/ZlmgbE7mWNDgyr/w5FBwkYsWPbW9+0sgJfQ9aMqW/oGIGxjPt/Speh0TVOdUcodWCsdP260l6P5A61KEZgiHRf5m627X2hfksU73zLgo278cXfv3Re1IFhwCwNhbvoIA83+TkYYr14Qki01/YmVTFu2uvKqfav9WFIne1x767qMIyBUUBDMESTfdV50KtQ0KeyImXcdSRRB4MD1g0ibJvxY887JMfPpr1XL51DMJpT1Oy0yGh1XsgeKxJN7zPVupcpMNijUNv5ptFUa5NejRiYIzcAQ6go6W67Hgbuw6B6qKOb+zBY/nigPKRVuKvvw+C7IYc5n1oYsXr0mocnLYxW8mka8TjUDqe3G+a3Yaxo9UNJaOsG7TVpyo6MFl2L34Vx0IB/CgPkc+BC6qCm2ludIrMeBj99p6cfoyvDWJ56i/QlGOSMPL4Jo0dHLYxG+4/f41dgBBp5UmkARtD/+5y+DuOuhSFdUBwbdSHDYNWL0RsnQ476D8C4aWEoU9Tw4NGSYPAaweioqyEYdjEexD6HIZa9+1wZUIvigV/EYUTGsvGmxnJK/zWl8Kwu3n4iQe9HndvAF+2vEsZTcpnHissvgLE0d5I/qvFpul73YThsUmjkCvpPw7Bx59aJzjXbdO/ZaAqoGhgjtaEfhbEsmhaAm3fmX2h/i/mhMtg7MPJA+uZDOrve/EtgiJn36IR9cBoYpNPA7+lcB+6GVw2MA2yB+GZQRf8cDOHjVkL3JKMwiIicZRx6D5cHqo00DSnI/wqj290mJtpIbXVMAMY+0GkvtXt0fJ+Omy+CsAHX4sdgcKGQY73oKQxp2n832m3sBqNlc8ZeCoOvliKpxy/AkNpQVJeJw2hix6adQu+T/AwMYZmVp3dlPQX1IgZh7dWgvbMb7bHSW4+fgSF0lMKjFsa536XI90P1mTiMdi/XzenTNZ0KBr4LQw0mhdVWYJzVY0Fp2X1Ry6B2NySr0w7z0KgrwcCXYWhff9f9AQZD1UDwSXw9KWXv7YfnSL2d3yZx+rkv8ZMvT4pBuiMgDq4sf+IUKPtGP1Cw21KtW2NhheRnrQvTPVeNAuhK4hA1w2UU/6ZZqJaXbdMfF1+9kzhbrAFILQCxhT+pf0dYFHnhV+3d8s6qtz/44pC7pn3uJq9eG0OwSRVBcUYdWkowlLlnvMNOlfxmtRQ3SvoEo4v0521lnsYRW8ETLLacbE6ybWOyR6fS0VVir2v0zQf2N0TWXT5fpLNBkmN4Ktq/ovi9x7SuyYHdeh0vk9HIbVp1Qiml+6q3Tpy8rTxZrDkE4ygZ9esGR8FVdwATNgYmm4xMDdfdXxdnQQ1N2YdcNCcjbtdT3zSrHHXdrKhmoN1VfV5Ri3G7eDFUb6rYSyLmFo2EdUwfPc7HQ+55Xn4hsE6NEXDbCRVlyvOsPOuq6KDt7tzlcaceZTU7XpYgv202Uq2hkF1y+kndJ3dtbWdMdpysyvNYqeQt60yTdF1taxwm9/LxOF3Corduq7rIzH3guC0zMlt1WKWZ6Qe24xJu/ge+kBs829E/ggAAAABJRU5ErkJggg==;" vertex="1" parent="1">
          <mxGeometry x="31.49000000000001" y="-342" width="85.41" height="110" as="geometry" />
        </mxCell>
        <mxCell id="Lb4S4Lgipoe_CazuFKkx-15" value="WEBSERVICE" style="rounded=0;whiteSpace=wrap;html=1;fillColor=#0050ef;fontColor=#ffffff;strokeColor=#001DBC;verticalAlign=top;" vertex="1" parent="1">
          <mxGeometry x="90" y="78" width="430" height="240" as="geometry" />
        </mxCell>
        <mxCell id="Lb4S4Lgipoe_CazuFKkx-17" value="soap-app-web-container" style="rounded=0;whiteSpace=wrap;html=1;fillColor=#b1ddf0;strokeColor=#10739e;verticalAlign=top;" vertex="1" parent="1">
          <mxGeometry x="150" y="-332" width="340" height="180" as="geometry" />
        </mxCell>
        <mxCell id="Lb4S4Lgipoe_CazuFKkx-18" value="VIEW" style="rounded=0;whiteSpace=wrap;html=1;" vertex="1" parent="1">
          <mxGeometry x="170" y="-300" width="120" height="60" as="geometry" />
        </mxCell>
        <mxCell id="Lb4S4Lgipoe_CazuFKkx-19" value="TEMPLATE" style="rounded=0;whiteSpace=wrap;html=1;" vertex="1" parent="1">
          <mxGeometry x="350" y="-300" width="120" height="60" as="geometry" />
        </mxCell>
        <mxCell id="Lb4S4Lgipoe_CazuFKkx-20" value="MODEL" style="rounded=0;whiteSpace=wrap;html=1;" vertex="1" parent="1">
          <mxGeometry x="260" y="-224" width="120" height="60" as="geometry" />
        </mxCell>
        <mxCell id="Lb4S4Lgipoe_CazuFKkx-21" value="soap-service-app" style="rounded=0;whiteSpace=wrap;html=1;fillColor=#b1ddf0;strokeColor=#10739e;verticalAlign=top;" vertex="1" parent="1">
          <mxGeometry x="150" y="118" width="340" height="180" as="geometry" />
        </mxCell>
        <mxCell id="Lb4S4Lgipoe_CazuFKkx-22" value="SERVICE" style="rounded=0;whiteSpace=wrap;html=1;" vertex="1" parent="1">
          <mxGeometry x="260" y="150" width="120" height="60" as="geometry" />
        </mxCell>
        <mxCell id="Lb4S4Lgipoe_CazuFKkx-24" value="MODEL" style="rounded=0;whiteSpace=wrap;html=1;" vertex="1" parent="1">
          <mxGeometry x="260" y="226" width="120" height="60" as="geometry" />
        </mxCell>
        <mxCell id="Lb4S4Lgipoe_CazuFKkx-25" value="" style="shape=image;verticalLabelPosition=bottom;labelBackgroundColor=default;verticalAlign=top;aspect=fixed;imageAspect=0;image=data:image/png,iVBORw0KGgoAAAANSUhEUgAAAYMAAACCCAMAAACTkVQxAAABIFBMVEX///9kZGRdXV1hYWFbW1v8/PzExMTIyMhYWFja2to3c6U3dan29vaurq7v7+//1UU3eK7T09P/3E3/zj3/00M2b563t7eIiIj/2UmBgYH/3k+SkpJTU1M3e7P/yjnr6+s2aZRtbW3/5VeioqKXl5fi4uL/xjRzc3Po7/V7e3vPz8//99X/6ly3ytv/8sy7u7v/+OX/8Kv/4pL//PNsncgbbKiHobxckLz/53MmZ5r/0lP/7oT/243/0mb/wyTY4+6VuddPh7mGq80hc7Jtl76nwNbH2OhAgbaWsMn/8LX/3lX/2Dn/5Yb/78CdtMgkYI7/zylwk7L/5p7/3H9Kd53/0Vx2nLz/7XT/674UX5b/9Nv/5nz/zUr/6Zj/5KX/vw29VWLWAAAMOUlEQVR4nO2d+UObyB7AgYGEWIjikRjjJqVADm2MrVqb7npXe9ju+ur2ve6zx///XzxmBpK50EQN4SXz+cE1FIZxPsz5HbKKIpFIJBKJRCKRSCQSiUQikUgkEolEIpFIJEq9PukczDZGMVd17UnnYqapVzUd6FPtoNU66hyf7u6fQHZ3T487Ry1r0pkiKQBVVbUpdtA53v/t7OzsN8wCZG9v4e15hiwU1Gl2YBy/i0t/oGBh4Qnk3Jh07mKm28EpZYBS8OTJ6aRzFzPVDrCCuCFaoBXM9bIiYZodHL2DRX96cX4iUhDSmXQOMek5MBAp3KhPJ6wAZxfw1rtCBXNzaeaGwNgIyI/pOSh5nu95QRnd1UtjWHIcPv276LfWGW0gUtC7SCEXLFbgtfUceSQ9B5ZVKBmWoxbC3+12Gg5OQwfH+N7vRArmeucp5IIhqGgamJSD8PZdRdmwPUUp2uU0HOwO6sGeSMFK730KuWDIm2GBT9hB164ruUJqDs6O4G+nQgUrvVcp5IIhr2fAgZNXfCU1B2FrdHTxlu+NoYKZdVBSfCeXpoOFhTOBgpWVmXbQbRaVSmoOhGNSrGAWHRTDIVHgKFaoopvGRGGXW56gFcyig7TZ32NgFEgH48dieU8ruK+DB832H8PBUOsNaa9KDMn7HqXgHg6KTtf2fN+zuwXRPzulO1PYQA7y5CHOQbFYTCw+yymFGfC9buGWEi6GU4DwJN/uBsknjY/WxfHufgIntALoYPM15tOH7btStgKvCYAWTnPRD7dEjyuKBc/V2txVJQ2WuYN+z8GA2QDg4hQIB0Y977sA0rYFxWcUfHhzgH94wgK2HM+NToI/m7nUo1XnJ0lL1UxfEDt4toZYvPz44faUN8qqRpYh0NpUGTThn13hLivB596MHGh3ONiouibANwE6H+W3fECmoKn8spvRbQM6m3ol3R0brZNB0ObWERHnYG1x8fLTLSk7bROggjc11wXo9/BDlzhjHR4ROCDrgQ7iEkYwDgqRgPgck5lFOaqGS9U0TVzOmktXBasLdADPCDPpol9ROlTLN2aOTriYmXBeEPH0KVEPFhdXVxNrgmGr8E/TwhbCCer1uuPjcgLO4BzzbgcblXK5jUq5XYZUCQfA9tA9gOo2XTUqvTKZUgEdBWq1GwQFu4J1uUQO4HoggCn4eZjJeq4c5dJNr1cweAW31YKnyEGsYDVkPqFPMKo6qvr2oCMOcFm6g3o+hANIUp+Mnn4N+HmYYr2LLZhd8ix4yOx3ExsVjS5fy4aVg+qnnCaWUElthHQ8qoK/YgdYwerlS3HCXVS+PtWuFtGfB6r9A0M6SBqbokfcr8eF5bgo+Wb/nhY6oBIXGmV8SlzkKGVQLZJJ1/FVpnAUNwZaoyqIHSxGClbn34grgg3L0WQqtIPKbb1/9MEO9Ap5hw2TrgiextSLUAuSoHvRRzTq0jeYXILBoCsFjs9u7QrmWAORg8WBgvnLz8KUsQP2WfJxRYif3Ic6cHP0hTj5eLDrMLUOEeBRUpQx7IDtf33RhWNjf/jeOHbwp7JJKphfFg+NxA4K6ElV49bigQ64RxU/wWr0qYI+Ocw5qHLEPbfYQU7nOvfx0Xo3woAoctBRPl8SCuaXl4VJix0YbWqP4mM7sHCHg5v3QJx64KL2EJ8jdlA3U3RwMWotCB20lB+rlIKrHVHSYgfRUxi3Fo/tAD/6kQOUiuaxp+BzNLxCInaA5y0pOTg/G6E3xgr+pSiXlILlK2GHkOAAT3tBNC55dAfVgQPc+wpGNyhnUZ+UAQenQyoYOPj7KGyK+gagguWlL6KkExzgkRGIjo/TQR21OVqRPUVx0F3b6B8m78DYH7EWwN5g+yOjYOlalHaCgwA5iBcsxukAdwcuv/pmraPHAA1qJ+/AejfMmJRoiP7uKMoNq2DpQNQhJDgoumThjdMBmlwDQQDYQlnAWcuAg6TeuEfwV5+n71uK8umSVbD0dSQHgOgpx+kgGmCKHIB+chlwsCdSsLKy/77DcxQKULZfk70xVrAknCnf6gD4eJY2SQeoOcyOA0pBb/8iKYKx/eWjQEFtFAdKUzqgc7Mn6I3hftLNzy94Pn28XBUoGM2BlZl6gAo+Aw4EtSDsdTd/f/78WcRaHK6Bhb8oUjCag/Taog3z/6JPNk64ne2hghfPIc8YC4v0+gShoDZan5zWuCiAF6misamZpbGp8fYJo+Dfoyqo1WqNUcam0fwgBQd4jmbyczQ8ccBRhsk7UE5pBStz4Sx4VAW1xh+ipG+fJ0d/9fjXKtjYgNKP22RlraKzR83Meq+Unf+MqqB2+FOUdIKDrjZoCMbrAOdAsGaHlg2jSzPg4IKZmnWUraEULBEKGof/FSWdsHbtUyv8eOWGa7Ifx4Gjiw2j+hHF8jLgoHVCrU/0jpQXz0ZV0KgJkxY7wGOS/sPJRNhjHseBgmxzMRwUPwBN/CEDDpS31Cpdr6X8PrKCQ2F3kOAAvdWkavFhPGHjmuxHcoC2inGNEQ4rRIllwcF5j1ylgw6ejaig0dgUpiyM6Udxrn48GRcZ11x0GQdotZku8GEcFFHQTme2dAFy2pAFBy36HRvSwbAKDsQp4x6xRG/S8ZhdI+gBj5YNBhRRSRIOcGzRJ88ZxoGSwzFJKg8e5TcLDuht1aSDvoKBAaGCX9/ECSMHql4hm+MSbokGGxasNt5PRZal1cXbEwkHCpxcE/uGlCEdKFVuaGRr1HWZcNAiowUDB2vDKjj8mpAwdqAC0M4VUcW3gkq0gY2YNqFFfqjFseDTaliB7UZbR0kHZPgRM5yDYhkVeX+nWR1VRK3aH4llwoHS6RHvd8QORO2QUEHjcCshXewgLE+gq2WvZHsVvJ0WqFT77GEJwGz7tl3yKzrae8g6wP2IVs73C284B2GXgCSodr5QKOQ8FzVExDpeNhwonbke6yBJAWkAK2gI52cQ/Oj6TfQfDb58gJ/uCtNNl/q7qtFbCqjEKkx/ED7AzXhzdZl7/4CEdaAUffQsoDcL0CZ4AMjN7xlxoBy9/ScKmf2DHVAKRDNj+PxDftUSOgOlPy4qeroO4r39QDN9bv1mo//6ABJhAr+A+mDKgVKvrGt4x3DkAJapyTuAO+WpOL7R1YgMANOlRsJoZz2/z30dppKmg7BT6Pz5ChE6WGMU3Lyk+IPgp3hUiumPTY1S1dX18CHX9ab4LZhc1TV1XTd1t10twZJHK5vsuDbwKqpumip2EFRDyjk2KbsMj9MTbyNXbYY3D28A2j4zY3Pg+WV2Gqego/wqR0rcrNENUcJu0rsh5mhGvZCzvVIu4NcwMUY9yHdzQVCPXilDOyL5FU8rgEQds/hrhRKOhunncl2Hz4AxSjJpccP0BfM/thiEq0M8SbHMYXDEDmaFG0ZB3Bv0uwPxSjXPwx3c69Jp4Eas4K5oAc9DHOCtQfe6dBq4uWtakIYDuKzW3xc8e9wsDl7woBRcXR0epuUArunQy0Mzxc1iQszsg6F8+96oJS1VczzEAZyjsQt5M8TNorAvqKH58LfkcAHHAxzgKEtar+Rlj5tVYXccbV85CB0Id7rzPMABaopS+bambPJDuJGrFm1fuQ4dJK4Q0dzfQQEtrN39TSJTy5Z4/8QS2kq3873R+DXuOVoevXrvZvE7bFJi57V4XgArws4fh8nxApZ7Oqh7AC1ec0s4s8TW5bxoanb45svPg8NGozFkNbiXA8OxUQwNCHZmzRSfk/ZPhAYOG0khG47RHFj1IG+XVfw1N1pldsdEEVsfr5Z5BSh2/P221Wqa0RyUVE3HUR6gmfbMrtYR/Dy4WuIjx4cHyREbni6MnA3twIlCmprelgYwO1vX/Zhl1A7VrreE74InYcDo/PqwDuouimQ2fUcaINj88PL66/dQxZuv11++DdsVUxTEcTMBhu3ZXUf+L+d4dnZ2tre3d0Z6/mmGHuXP8HRAIpEkgOLZhoCsfg/ulCEqeoEMyZigy5n75mtLihgzt5Z+golJ53nK4AUUOQQaJp3tKYIz0C/3OobVICU8OgkK6gSMBSnhsWEcUAqCgJLAOJh0zqeHxLYooRbIajAG+EER3yWLOuVJ53uqGHpoKkdF48QYwgN5zqTzO6UYQzPpnE47svQzgxEHVgzyg0QikUgkEolEIpFIJBKJRCKRSCQSiUQikUgkkhH5H+ifDVGuXJYRAAAAAElFTkSuQmCC;" vertex="1" parent="1">
          <mxGeometry x="-30" y="38" width="208.38" height="70" as="geometry" />
        </mxCell>
        <mxCell id="Lb4S4Lgipoe_CazuFKkx-26" value="" style="shape=image;verticalLabelPosition=bottom;labelBackgroundColor=default;verticalAlign=top;aspect=fixed;imageAspect=0;image=data:image/png,iVBORw0KGgoAAAANSUhEUgAAAYMAAACCCAMAAACTkVQxAAABIFBMVEX///9kZGRdXV1hYWFbW1v8/PzExMTIyMhYWFja2to3c6U3dan29vaurq7v7+//1UU3eK7T09P/3E3/zj3/00M2b563t7eIiIj/2UmBgYH/3k+SkpJTU1M3e7P/yjnr6+s2aZRtbW3/5VeioqKXl5fi4uL/xjRzc3Po7/V7e3vPz8//99X/6ly3ytv/8sy7u7v/+OX/8Kv/4pL//PNsncgbbKiHobxckLz/53MmZ5r/0lP/7oT/243/0mb/wyTY4+6VuddPh7mGq80hc7Jtl76nwNbH2OhAgbaWsMn/8LX/3lX/2Dn/5Yb/78CdtMgkYI7/zylwk7L/5p7/3H9Kd53/0Vx2nLz/7XT/674UX5b/9Nv/5nz/zUr/6Zj/5KX/vw29VWLWAAAMOUlEQVR4nO2d+UObyB7AgYGEWIjikRjjJqVADm2MrVqb7npXe9ju+ur2ve6zx///XzxmBpK50EQN4SXz+cE1FIZxPsz5HbKKIpFIJBKJRCKRSCQSiUQikUgkEolEIpFIJEq9PukczDZGMVd17UnnYqapVzUd6FPtoNU66hyf7u6fQHZ3T487Ry1r0pkiKQBVVbUpdtA53v/t7OzsN8wCZG9v4e15hiwU1Gl2YBy/i0t/oGBh4Qnk3Jh07mKm28EpZYBS8OTJ6aRzFzPVDrCCuCFaoBXM9bIiYZodHL2DRX96cX4iUhDSmXQOMek5MBAp3KhPJ6wAZxfw1rtCBXNzaeaGwNgIyI/pOSh5nu95QRnd1UtjWHIcPv276LfWGW0gUtC7SCEXLFbgtfUceSQ9B5ZVKBmWoxbC3+12Gg5OQwfH+N7vRArmeucp5IIhqGgamJSD8PZdRdmwPUUp2uU0HOwO6sGeSMFK730KuWDIm2GBT9hB164ruUJqDs6O4G+nQgUrvVcp5IIhr2fAgZNXfCU1B2FrdHTxlu+NoYKZdVBSfCeXpoOFhTOBgpWVmXbQbRaVSmoOhGNSrGAWHRTDIVHgKFaoopvGRGGXW56gFcyig7TZ32NgFEgH48dieU8ruK+DB832H8PBUOsNaa9KDMn7HqXgHg6KTtf2fN+zuwXRPzulO1PYQA7y5CHOQbFYTCw+yymFGfC9buGWEi6GU4DwJN/uBsknjY/WxfHufgIntALoYPM15tOH7btStgKvCYAWTnPRD7dEjyuKBc/V2txVJQ2WuYN+z8GA2QDg4hQIB0Y977sA0rYFxWcUfHhzgH94wgK2HM+NToI/m7nUo1XnJ0lL1UxfEDt4toZYvPz44faUN8qqRpYh0NpUGTThn13hLivB596MHGh3ONiouibANwE6H+W3fECmoKn8spvRbQM6m3ol3R0brZNB0ObWERHnYG1x8fLTLSk7bROggjc11wXo9/BDlzhjHR4ROCDrgQ7iEkYwDgqRgPgck5lFOaqGS9U0TVzOmktXBasLdADPCDPpol9ROlTLN2aOTriYmXBeEPH0KVEPFhdXVxNrgmGr8E/TwhbCCer1uuPjcgLO4BzzbgcblXK5jUq5XYZUCQfA9tA9gOo2XTUqvTKZUgEdBWq1GwQFu4J1uUQO4HoggCn4eZjJeq4c5dJNr1cweAW31YKnyEGsYDVkPqFPMKo6qvr2oCMOcFm6g3o+hANIUp+Mnn4N+HmYYr2LLZhd8ix4yOx3ExsVjS5fy4aVg+qnnCaWUElthHQ8qoK/YgdYwerlS3HCXVS+PtWuFtGfB6r9A0M6SBqbokfcr8eF5bgo+Wb/nhY6oBIXGmV8SlzkKGVQLZJJ1/FVpnAUNwZaoyqIHSxGClbn34grgg3L0WQqtIPKbb1/9MEO9Ap5hw2TrgiextSLUAuSoHvRRzTq0jeYXILBoCsFjs9u7QrmWAORg8WBgvnLz8KUsQP2WfJxRYif3Ic6cHP0hTj5eLDrMLUOEeBRUpQx7IDtf33RhWNjf/jeOHbwp7JJKphfFg+NxA4K6ElV49bigQ64RxU/wWr0qYI+Ocw5qHLEPbfYQU7nOvfx0Xo3woAoctBRPl8SCuaXl4VJix0YbWqP4mM7sHCHg5v3QJx64KL2EJ8jdlA3U3RwMWotCB20lB+rlIKrHVHSYgfRUxi3Fo/tAD/6kQOUiuaxp+BzNLxCInaA5y0pOTg/G6E3xgr+pSiXlILlK2GHkOAAT3tBNC55dAfVgQPc+wpGNyhnUZ+UAQenQyoYOPj7KGyK+gagguWlL6KkExzgkRGIjo/TQR21OVqRPUVx0F3b6B8m78DYH7EWwN5g+yOjYOlalHaCgwA5iBcsxukAdwcuv/pmraPHAA1qJ+/AejfMmJRoiP7uKMoNq2DpQNQhJDgoumThjdMBmlwDQQDYQlnAWcuAg6TeuEfwV5+n71uK8umSVbD0dSQHgOgpx+kgGmCKHIB+chlwsCdSsLKy/77DcxQKULZfk70xVrAknCnf6gD4eJY2SQeoOcyOA0pBb/8iKYKx/eWjQEFtFAdKUzqgc7Mn6I3hftLNzy94Pn28XBUoGM2BlZl6gAo+Aw4EtSDsdTd/f/78WcRaHK6Bhb8oUjCag/Taog3z/6JPNk64ne2hghfPIc8YC4v0+gShoDZan5zWuCiAF6misamZpbGp8fYJo+Dfoyqo1WqNUcam0fwgBQd4jmbyczQ8ccBRhsk7UE5pBStz4Sx4VAW1xh+ipG+fJ0d/9fjXKtjYgNKP22RlraKzR83Meq+Unf+MqqB2+FOUdIKDrjZoCMbrAOdAsGaHlg2jSzPg4IKZmnWUraEULBEKGof/FSWdsHbtUyv8eOWGa7Ifx4Gjiw2j+hHF8jLgoHVCrU/0jpQXz0ZV0KgJkxY7wGOS/sPJRNhjHseBgmxzMRwUPwBN/CEDDpS31Cpdr6X8PrKCQ2F3kOAAvdWkavFhPGHjmuxHcoC2inGNEQ4rRIllwcF5j1ylgw6ejaig0dgUpiyM6Udxrn48GRcZ11x0GQdotZku8GEcFFHQTme2dAFy2pAFBy36HRvSwbAKDsQp4x6xRG/S8ZhdI+gBj5YNBhRRSRIOcGzRJ88ZxoGSwzFJKg8e5TcLDuht1aSDvoKBAaGCX9/ECSMHql4hm+MSbokGGxasNt5PRZal1cXbEwkHCpxcE/uGlCEdKFVuaGRr1HWZcNAiowUDB2vDKjj8mpAwdqAC0M4VUcW3gkq0gY2YNqFFfqjFseDTaliB7UZbR0kHZPgRM5yDYhkVeX+nWR1VRK3aH4llwoHS6RHvd8QORO2QUEHjcCshXewgLE+gq2WvZHsVvJ0WqFT77GEJwGz7tl3yKzrae8g6wP2IVs73C284B2GXgCSodr5QKOQ8FzVExDpeNhwonbke6yBJAWkAK2gI52cQ/Oj6TfQfDb58gJ/uCtNNl/q7qtFbCqjEKkx/ED7AzXhzdZl7/4CEdaAUffQsoDcL0CZ4AMjN7xlxoBy9/ScKmf2DHVAKRDNj+PxDftUSOgOlPy4qeroO4r39QDN9bv1mo//6ABJhAr+A+mDKgVKvrGt4x3DkAJapyTuAO+WpOL7R1YgMANOlRsJoZz2/z30dppKmg7BT6Pz5ChE6WGMU3Lyk+IPgp3hUiumPTY1S1dX18CHX9ab4LZhc1TV1XTd1t10twZJHK5vsuDbwKqpumip2EFRDyjk2KbsMj9MTbyNXbYY3D28A2j4zY3Pg+WV2Gqego/wqR0rcrNENUcJu0rsh5mhGvZCzvVIu4NcwMUY9yHdzQVCPXilDOyL5FU8rgEQds/hrhRKOhunncl2Hz4AxSjJpccP0BfM/thiEq0M8SbHMYXDEDmaFG0ZB3Bv0uwPxSjXPwx3c69Jp4Eas4K5oAc9DHOCtQfe6dBq4uWtakIYDuKzW3xc8e9wsDl7woBRcXR0epuUArunQy0Mzxc1iQszsg6F8+96oJS1VczzEAZyjsQt5M8TNorAvqKH58LfkcAHHAxzgKEtar+Rlj5tVYXccbV85CB0Id7rzPMABaopS+bambPJDuJGrFm1fuQ4dJK4Q0dzfQQEtrN39TSJTy5Z4/8QS2kq3873R+DXuOVoevXrvZvE7bFJi57V4XgArws4fh8nxApZ7Oqh7AC1ec0s4s8TW5bxoanb45svPg8NGozFkNbiXA8OxUQwNCHZmzRSfk/ZPhAYOG0khG47RHFj1IG+XVfw1N1pldsdEEVsfr5Z5BSh2/P221Wqa0RyUVE3HUR6gmfbMrtYR/Dy4WuIjx4cHyREbni6MnA3twIlCmprelgYwO1vX/Zhl1A7VrreE74InYcDo/PqwDuouimQ2fUcaINj88PL66/dQxZuv11++DdsVUxTEcTMBhu3ZXUf+L+d4dnZ2tre3d0Z6/mmGHuXP8HRAIpEkgOLZhoCsfg/ulCEqeoEMyZigy5n75mtLihgzt5Z+golJ53nK4AUUOQQaJp3tKYIz0C/3OobVICU8OgkK6gSMBSnhsWEcUAqCgJLAOJh0zqeHxLYooRbIajAG+EER3yWLOuVJ53uqGHpoKkdF48QYwgN5zqTzO6UYQzPpnE47svQzgxEHVgzyg0QikUgkEolEIpFIJBKJRCKRSCQSiUQikUgkkhH5H+ifDVGuXJYRAAAAAElFTkSuQmCC;" vertex="1" parent="1">
          <mxGeometry x="-38.379999999999995" y="-412" width="208.38" height="70" as="geometry" />
        </mxCell>
        <mxCell id="Lb4S4Lgipoe_CazuFKkx-27" value="&lt;br&gt;&lt;br&gt;soap-db-container" style="rounded=0;whiteSpace=wrap;html=1;fillColor=#b0e3e6;strokeColor=#0e8088;verticalAlign=top;" vertex="1" parent="1">
          <mxGeometry x="90" y="510" width="430" height="240" as="geometry" />
        </mxCell>
        <mxCell id="Lb4S4Lgipoe_CazuFKkx-33" value="DATABASE" style="shape=cylinder3;whiteSpace=wrap;html=1;boundedLbl=1;backgroundOutline=1;size=15;fillColor=#d80073;fontColor=#ffffff;strokeColor=#A50040;" vertex="1" parent="1">
          <mxGeometry x="225" y="590" width="160" height="100" as="geometry" />
        </mxCell>
        <mxCell id="Lb4S4Lgipoe_CazuFKkx-37" value="" style="shape=image;verticalLabelPosition=bottom;labelBackgroundColor=default;verticalAlign=top;aspect=fixed;imageAspect=0;image=data:image/png,iVBORw0KGgoAAAANSUhEUgAAATkAAAChCAMAAACLfThZAAAA4VBMVEX///8AYYrkjgDjigAAXojjiQAAWYUAXIcAV4PyypT45MP//v1BepsAZ4/+/fjqq1qfwNAAU4Hs8vUwe5399eXmlwja6O/tuID22bDC0Nrz0KHuvICUt8nnnC/uuGnihQBtl6/pp1Hoo0fxxYevyNVunbVajqrp8PSBqL3N3OT23bv77tmqxdPC1uDR4en88uIhb5ROh6V6o7nttXfvvXnllBzxx5adtsbrr2frrE6Lqb0mdpkHbZRYiKU/g6OqydbpozuJtMgATH355s700p/yzKbqqF/rqUX12Kvnmyfwwn7cfTUmAAAPM0lEQVR4nO1de1/aPBtuaUiKUqQF+zJE6xQpBznO08T5bHPb457v/4HeJKVJSg+kDCfQXvtjik1pr9+d+5xEUfYDvftW9UPPfe/H2Dn0yggiHaqTTtt672fZKQwRUCkA0uetnDtpuJQzBDz6oNnNuZPEN6iCSbfbmSxED+ZyJ4kpUo0R/t/98GxCj7vJ8L0fahfg1gDqLH62uyrlDpjdd32m3YBVBmDKfnNnBiLcoY7rWvmkTcYXACYCR6OpTqlTn+a16fnjtf1+T7btaOkqbIkfDCdU7IAKAIK6aVx9yF3kSFiEpcDEdJ+RyoHpm0xzFzkKXajC88An1rkOKRZeHgBmufo+D7fdMIBqtoIfWa7drt4/Xk0npufmAX3Se5+n22Z8INzEuHDWaFZGnrlVr3J9t4yZrgIjlharXdM97p7af/OpdgIdqKJywt97HcodMKe52C1hjlSYGDf0Op7YGdd/65F2BCNsJVCyCWjT6ALA89xBCaBtYlWXzInV1QHVdqO/9Ew7ghkMzlfXtkM6bTiH+YwNw8CkCEHqN2gaIVNqXRGxA8kqMXMYokAoYdUQ0MOBQ1sl2k7v5MpOQAcEnDp3gkOvMEGjZzpja7l7wtHWVShqsB5Q9X/Cl1kdSt0kTz9xYA02F3/vIDMyJuvqNAmVx7EM2Nk1RUnqARR9YZVkAYCReyc+qnApx9lpxVx5TbJPIJ+wPlykgi/iB/EGtJ1TF8AzCLh0SWjTCTvPnRMP2LrqsvFBlUZi09UXZgI2duGeZS9uEQurX73l8+wQzpFqSOsu6pzAx7d8nt3BEDvD8qWaKQnEYN5JQfEEgs5wIqwJ0XXxafhM4RGqpnxsQPKhKuysvjADsJGKUij9a5MY2Dh/OVsg5YYUUdUVif71PAzDGKV00sp4viJpT2avgR0TlMJcDomR0PP5imFjL21FKScA6tWlmeD7iy4WumkK6ohrAmpv9zw7hAlSYQrq2nS+5n0TGD0SGaRwTUgoASZv9zw7hCGmzpRPvdlE0UWUybKIFko1/bowzzctcI1UM4W1tGgxLC/oYMyBCtJcT4UuD1+x4jJT8jBUQ13a2UQLqjCdlzEnMVhuI3AAFlhbIgGSWc+9YbKeKU2micAmiTo989nhkQFgWkM5Q7mNwD6JDuZpM+Sumcf9JLmJztcYpKbKJu8l8GRNn2/r0cJ1th0TF6yl64nQZbwLdghUcw3Z6ZGMSZqU6P4BB636OuO+gKyn1e8heFpn3JCY10mWy9aPSJUv84vIfAj2CINxlLTqalNNt/kH2hnMUIA590k6O0xqr2s4NHuDLlTFosLUlE6bXJMMZ8pcwT7hEYkWYqbLh6PWJNtV63soJISvdVW6dZgm9rLcO1yFgidMytDybZm0IAEzuxKxLZRv2pCutpEeOyPXr+UN7gNGwnIvbwm6fC3VJks9U/TL7hl45G55e+WAsrTq6mbavM6BvxKHBlQgTdeI+wTStVbsFbrQX+dKbWWnnKZrpE37XyftTK5r6iHfPp6TnNs/mD8kX0Skrf4AGdMM1nPcud+/ShJHZs9K1apke9smkl1hstcZRnwLUvyySCCq00mbIjKwZypcbIJlVDNmK0a6V4yxiR88xwwaIFXizW2VDUoeyNxep1hXIZf2qat0D06yLWK6EsOo/fydKjw9W1vqjBDth+vpC9fOmgMVpS2m2o9zk5QSU7ao7DiucNTfcUnWyLOybX2dCr41PMfzHKAs7VvnYg2HwBOZbp6iwlRG7yOxAqMJkdtJhor/vcUepcwd6cA1g6oWwGK3vBnlPsPfM81PGblltGZQNaplrFunVzN1XUh72AZKbSQW6JpAhbUMxWOjakCzuRO4bhJkNMcWJ8MFRbu29kb01hUAAGb35An7af22zOGTDjK895rV+YM+rxYC6Cmz1Cnf/mCpzRBHJucbe5KdQ2u2/tjHVDmXvUM7pZUYfeh2nieGqpv0rBiU2ZqiolzLi43Vm5UNiBBQ/XOxoL5en9R+YChJ3XA21/2jxFSEEIS6MfuQIYc4DDti980wrkw/9gXQNJ5n9/ftDOVM/gQtrx6hw8mXb6PseiNrwDXoTL3uZXp+rgVvl7XsRqvrw3qmW4VlKpm+Idh03+Ese3Brg25jqpqdeE1n2e2rTueq2pM3IXa7i4e03uic3soKHG7s/sl3agHv7KGYijX2+JCOiKun1yQP8Bx21MUIo7PhOvjhwY/LT0fJ+PiyPKrSL/0vBqVGPfQd/E4HyU8zBF7V9TkiPWVPTH4iG9ClNvic6WwIAPoGo+BK/0xzikVtBZy+OKjevzl2nNhBRcc5Pguyd3jM7tRY8URWxzsm0bxaFhDbEE+yk9vXeQYDQza2RK/SONW0ggRE5saXt6sHadrtzZiPOTz2/1BcxZyiVL2gFZWX1ml3lliQ2CyGtpgF2Jbv/k5C/agoxVuAuYPbotyYYoGTlIo5pVfzmkxAYMbSxtggVnXVupPQEHifjqNIjAuSvInM3TmyY/CoG39UOuYU5dqgZw8Fqq5DFKJh1dKn1rKUqhtJlda/ShPHmbuTH4OhlRbD0jKnWK0ykTtRLX3QQzSsaiMw/MSLyn7YxEaVN8Ksk7UQ4wBxWoyR4FcUFzY5NXPkiL8JDEgdZ86Y+0SARE1XZSIHntlPf75JyviWv9/xSbM/qCehQsccPgisaNrDz0b/YBmNu69ce2ofFwPTM4eBuRPaJBhzoNxiEzdxtw+B4G9oc8z1+eudyfq5FVHgjsYxww4PTtm9jwfeR2sxh+esgdjmwwJzFhO/JLU1ZFfp1Wu4Oebu2GQ9DTmucXjh5iGR7jEXZ2+ar8kcOY0Y+rpMYE65YkKX4A5PuZbjE3cDzN34cqEdSY955arxdyLdDf/Comcj1maOrMdbbFEvMjdiHkr88tgesyPw8Y2YO5MeU2LMaZ8SL2RKVPMckz9gThlNvEN2ReYWq6TUJMeEyyX2freIuZPEC+u+plvc/E+YU9wpXQQaYK7HdVhMjcNlhpU0f2eTOSw+JFYIMMeVWFyj3SP3gkeRzPWqPhKdwmt2ma9Rd4k5hbxbkLlrbl4jm/QsI0BtBHOP373j3KF5nvTVaHHqO/zu56p3ijmCIHM8PojeFqvKmKVrbyOYu/c/Sg7ImOTqYebkbevlFjHHYlIQ5ZjQ1UDen2m4tUnmTpi3Ku/PbZPM0fU+FFGOSZvbB1rV2CRzPzkLpaSRIrZJ5njSMmrxOwu8FhuCbJK5QYFhZZ7WxzbJHNm8zddkIcdkyERuUb6NYs6/X1rmxFyJdnrTDKLx8jKoh+KrrZI5upjW+yCUMeGO8mLh3kaZE/NzmlZcglMsnP66HATJ2yqZE73hpYzJiP3FT/BtlDn8esl5cVKL+d2oCHfZLplTar5kLXvD5zwLtSiyblLPYVRuVubTNe22xLnbLpkTDGjQMbHDvt6GmVOUl38LK+tYzhHzWraMOe60BR2TbiDwotg4c9jENj9rtHRaEP4FydRu/frfls1WIVAQTwqweNGBmY43YA6jQor8nz4KuPhdcMS8+eniyi2TOcV68kkST5Hl5Qd++OTbMOch0EYyHrzc3HLufIdv22RO+cbeXnBMouo7b8lcCJUzztOD551sm8z5uxmpomPC6/pCTTGCudabMadUjlhS4KtnJLaOOZ745Y7JdCnwoojKMqVlLsUStqZPlHa6rcyN2Iv5jkmP2wehdyKKOUb6edLX7itzPM7yq4tC4CU0Q20jc6JhYSM3xlylPvbvGs0cK6ouMiY2Dx/Ehq9tZO7y6wUD6yrcEHPjy4vb2683XrU7mjnl2SfAa2yaRccV28jc4aXDG0qaiw83w1zJKX6++3mmOfQmMcyxEAw949npsheFgTWOEcx1399CvAo5l0vvo00wd3jm3NCZWrlxiFcUwxx/NdJjwvu+gqcFbg9zhY9CDqXJPvVr+mOfKb9SzTpNitIJ6IZzUvn069evsxflxGnGM8e94Y5izf33XOrnXH+2sm6CNBvXsFKFz5zQHVEYCBf2efdSkQoj745YCOFndqsH2W8vfK3Ubx9+/vzoHCjHv+uxzLmsIKHaQiAbfM+kGEKtJbWsM5lLwZzQ7bSQsLHQkfNZTHoOjjl1ZxUucqxlscRntOR0PXBKSv2WKE6s5hqYvTjm6DFOnvC0mMiBpQbDqEo1d/ySdqRJz1ylzwNXX6tVGCOEOrELbHDBqXvo8y4wXzRf+MBCU2p1xQ9ngJm7q9RLmMIXrRnPnC307ccppajuCGaVsXG5jl3caIRuOQj1DAp4fb0TE8aOPzVPAn2eR3e8X/HglP9B6Nu+8NWhkLp3jo/umo2Eb6ffVnLG2NA4jqNdVpRB4b945oQUMBe5JSKimLOFZliIQDT4PRlz/65aBME5KrJO6XogiRx9tQheVRsUYgZGtNZ+8mTuhczWyin58hftLoG5UaiROrTsIbIjZygSsxKMuc8xLxtGUbCjjVQd1sUHPi+b0iM93fDiXFI918cMKj+xvoxnjkdcPszlNV7RvUw9I9y8vjnmsB8qFnEasksoMJwHceQPR/YbPa1aOK0Q5g6PTivK8W28bVUW2zmLIheq+sd0gVndxeaoMsz5eSw55rTi6ZItHFxIcqddLC3xGhzJcbdgro+Jf8CmuX7x4ybJnyMIrpWA4caw2P45ezZXIZJhLxVzmnbaDDWdVF6lljxpXyuhkf3PtxK0+5b80jkaVDzGb0gM4Xdt6WHmsMrSPaUFAPoe4WRUTX9weBOP4X3nyYxFmLl/neXi9FKp2nGOb/qht/cYiFpm59W3xR7siKGDn2fH+M6J3+34nbRNp3jxv7uPmvMf+c1u+Yhcs1T9MjEwnmqzqH66UfJgsm42Bjyc8+/7WkrCj9fGIJI1Hy8/SidLizNLpdfGgeAFFi+i73BYf+k3k76cLZUaXx4dFz6eDCJvE4JLselNJ/QQc2+FwW/uQF+MV1+fjEOen3sn/D3mlMpvnlH5LSkuWwwY0nNvh8oRp67QX339doOZiL9xNnTlYX+oi0v4vREOz5iJ1bSdpk5YIfuXjpxp8oY85/JPN554I1irMGqVuYeN/tYhvf1Lhv+200y0VSMZwBQiM6Dn+5L5aEtHrDQ0yfc8YmiH9wWIBVLzHY845JkDpvzBqlmAJHMAmbV8pgbQhmpMBp0BQWiUr4b5/otBDOe1FZjO7vdhf9T/A85WcJLG8EcTAAAAAElFTkSuQmCC;" vertex="1" parent="1">
          <mxGeometry y="500" width="136.09" height="70" as="geometry" />
        </mxCell>
        <mxCell id="Lb4S4Lgipoe_CazuFKkx-39" value="" style="shape=image;verticalLabelPosition=bottom;labelBackgroundColor=default;verticalAlign=top;aspect=fixed;imageAspect=0;image=data:image/png,iVBORw0KGgoAAAANSUhEUgAAARMAAAC3CAMAAAAGjUrGAAAAkFBMVEX///8dY+3y8vQAWuwAV+wOXu0AW+wAVeylvfcYYe0AVOzj6fyIqPTc5/wLXe1/nfP5+//x9f5ymPOYr/VulPKvwPdjifHp7v00cO7M2vslae75+frE0Pn09/4bZe3x8fMAT+tFeu88de/V4PtQgfBjjvKbtfa2yfjH1fqBovO5yvhVhPAube6QrfUASOuasvUMpWOeAAAJRElEQVR4nO2b63qiMBBAQQgQLxQsiFe2Cipa3b7/220mgATHtsF2v3a7c/6kGghwSCZDsIYhWfSIXm9hNCx+qZ/+XxaNlQUZqVn0qpKUKEgppKSF1PHrq8/im9GjboIQQnpffQ7fjh45QZATDDnBkBMMOcGQEww5wZATDDnBkBMMOcGQEww5wZATDDnBkBMMOcGQEww5wZATDDnBkBMMOcGQEww5wZATDDnBkBMMOcGQEww5wZATDDnBkBMMOcGQEww5wZATDDnBkBMMOcGQEww5wZATDDnBkBMMOcGQEww5wZATDDnBkBMMOcGQEww5wZATDDnBkBMMOcGQE8zHnARLSfBpp/Mt+JiT8Lct+J182ul8Cz7opG8KXHKiQE4w5AQT9rmgT04UwvlGML/XyX3z1erOo2nzhflJsZnu79gtciaffiptujkZxRIj8WQZBLL07rtzjHEr7LxX7HJ3d9fxtOnmJH6yLMueGzMoLR6Gv6G8Mz9xTbM/6LzX0DfZ+K7jadPRiSWmGT41ZjbMN/PwQ/OOaMP9T5x4mWZj/4+TxLFjvcZ+ihOXMeafjFlflCwNwycon1QnB5+7etPJD3GyfJ4IIiPLodyuVrLMFScrzk1ujXQa+yFO3mcmZhOT5Tqb/uNOlo9AbGRnKHfGQJYvQTCEchgGL1CeRffwIOKY/Tfi7Cqs0tdrJ8FqdTuxbVUgJ8Hq1W3l4eqPYaibRuk5Obi+79sTI+6L0oL8BEpTxBNR+k9JkFpQLg3jxQEn/uMrDY2GecpP63EcXDlJvMkmTTcT73peD+PtZi4qdtWmQ9Z2spvzZdPIVjQyzXeNai+di+ogjjacp+sHrTlRz4k4ETEitq/OO8GJi9K+OGGTmXd+jIur+55sLV+EG86ZlXqqk9XBsphoQlT4h9btfGFQAXtYUYidjNaWuNbyMMGh2pZbzrhqJHzibGrsUlEBgY653hc42cuxYzLbER3Jdg9q8r53mHnBzs2Lkyx1eP09d+ZNhE42VlPBzOLayaML1VwKGJyUbf10VjoT4S3dWJej8s0XOBn0TQX+pOQqcR96gm+7rgXN8YuTTBphQqEtK9isVjKXny3bLnuRk7ScZPJi+ZN8/Bnxsp/V21rL2ok8EjRiM87Wn+bkYEP82JbxxDmV8cRPlXgCZR9OI2eqE+W2FHBPGXsostHyubpz0snAl9ewXWajInLqaxcEJwYV+T7LlhETf9szJcYGQ3BsOidpMJQi/EmcZceIw35Po9pJ3UgxnG50Aoqek/gB2BnFGMqDMSrLYCXLcRgcZAkHzBQn3G1OIZiLk7aeqwBy5Pzi5FnswaZV38im/mUufxCxiZ2qikHu2vOgcZJNZSdxD2UwiaCR+ooHudiTry9O+HxmdOCT85PVPr8MapM5RVMDk7TTBMckrcdOIUYbW1+icbAWV+fCjomo4GkTkGIP/q6cHGTwsGpjmd1qxNhCr9rXY6fjopdmfuK9z8vwIVrbZZyTU4s9UbMPEXFaAU4GEXACp28qoThMZegyjLMvRhHKiMHJQ3Zy5Ig41N8+MLGtOmFNxeHyyslb2dIt9JxsXes9HDHRsKqP8Gmej71WjjqyyhjcAL1dOFlBTDirFTCdz4WkDb+VsYoYy+fyQPzUXKsYiv6LutlSHM9dSSdScBf0nIzVwPku3MEpu5ij+amVrhSWdJKJwm9tPxARxR0ZiZgvLBwHRD8xy76YNs3JYbaNVGDwFNKJXaBG3kbPyYPfxQl7xi2Im8/bXydlzlbY17IMcc1wOWLocBwIhn45OMVhosuXMjfgTAWizV46sboueek5OXdy4t6I8qKFqz4clE6WNiQ8LUTosY5ytKX4AahMlRj0FXtYf1nmS9dYMTjhZtdFXz0nR+vWMV+B38qLdjf7iZ280U+cV/sJy0cyRNt1pp7hfsKYL2IrOEn/jpOR06Wb3Bq/wiqfX8cTON3MQfFEfGMP5Gx9K56wssMd+8qhyngybnMojL/pxDjxd1XU3A7zYLU974g5GGbLIO0479R5rGfDbFxNPSK+sDPa9u86ibQnHm7fDmnzq/xkJq7cgSUFcKMO+aTOT8TV31ixa9ZPhiAlLY8G+cmtl0V/00lxM4jdwnpl6QRuq9PMFDAyuA9nO4M8dnOVx8KYkQNCsbXfKXksEFmQ+8s9yzy2SdqKY1m2nYR6L2N1c3umOXhef/AUmaXp5NV9LyC1t8p5Y9t63gElfhmNhxZIqa/u2bVPRnudDZ43q4l/DKF3Wo2kJO/3y69VJ7PD/qz1SkHXyU5v5rmRjNfIuYH50b4odmt4BKj1hal8Lp7ERRE/y2dks3ou3sgsY70rZvFWPhdnbSerKas7X5DCs7D/HM+y5Vg8F3M7vHISbpfn41DnYVDXSaAXZd3j600Udr3CUa6XbOquPjBlzlEvfbC09hqW6ydOvSbCwqs1JanTlsG1XGtpGinHlOJkv/fO4+RgvI/2c/FeJ6K8/XZ76TcjkNt5M7hbS2TWvJmZk1NzVO6bcJPba9SZTBKk3ERdTvPTchgpOVux845RdmtyutuJsX0/l7Vf3m4ijBynXBeF9ViVIZMrpqKCD1sVO7Nej63WWD2X20oYF52P1dnuELaVrTtR9dUK1mOrv8dxsJzozEH6ToLpO/Mxd99RIhjs8lOaTqP99QwQehNRcdp61ycd7COoeL6sxW/9XN05NqeXtGcVb6dpuomUxf+Yp5cU0ju8aL3O6LCmlKRvSuG23ivRQPChitV17dW2b1Vr0WWdLdy8keJbp44rN9+XTmuPQdR/ZfZh/eHP+TF1x/XYozJDNKPGt7bdX/x+XzqvUe/X5euZ2gf33flB63cE/wx3rNsncZQ68Ls2WIVl+eP1G9B/njvfZaxGs2K5LGY/7NfCJfT/OxhygiEnGHKCIScYcoIhJxhygiEnGHKCIScYcoIhJxhygiEnGHKCIScYcoIhJxhygiEnGHKCIScYcoIhJxhygiEnGHKCIScYcoIhJxhygiEnGHKCIScYcoIhJxhygiEnGHKCIScYcoIhJxhygiEnGHKCIScYcoIhJxhygiEnGHKCIScYcoIhJxhygiEnGHKCIScYcoIhJ5iesVh89Tl8M0DIr68+iW8GDJwFjR6VctzQ6FGpeghJudAMmsUvsgIseovWJ6JXG/kDuvCbPM+dXFcAAAAASUVORK5CYII=;" vertex="1" parent="1">
          <mxGeometry x="470" y="-20" width="120.22" height="80" as="geometry" />
        </mxCell>
        <mxCell id="Lb4S4Lgipoe_CazuFKkx-40" value="" style="shape=image;verticalLabelPosition=bottom;labelBackgroundColor=default;verticalAlign=top;aspect=fixed;imageAspect=0;image=data:image/png,iVBORw0KGgoAAAANSUhEUgAAARMAAAC3CAMAAAAGjUrGAAAAkFBMVEX///8dY+3y8vQAWuwAV+wOXu0AW+wAVeylvfcYYe0AVOzj6fyIqPTc5/wLXe1/nfP5+//x9f5ymPOYr/VulPKvwPdjifHp7v00cO7M2vslae75+frE0Pn09/4bZe3x8fMAT+tFeu88de/V4PtQgfBjjvKbtfa2yfjH1fqBovO5yvhVhPAube6QrfUASOuasvUMpWOeAAAJRElEQVR4nO2b63qiMBBAQQgQLxQsiFe2Cipa3b7/220mgATHtsF2v3a7c/6kGghwSCZDsIYhWfSIXm9hNCx+qZ/+XxaNlQUZqVn0qpKUKEgppKSF1PHrq8/im9GjboIQQnpffQ7fjh45QZATDDnBkBMMOcGQEww5wZATDDnBkBMMOcGQEww5wZATDDnBkBMMOcGQEww5wZATDDnBkBMMOcGQEww5wZATDDnBkBMMOcGQEww5wZATDDnBkBMMOcGQEww5wZATDDnBkBMMOcGQEww5wZATDDnBkBMMOcGQEww5wZATDDnBkBMMOcGQEww5wZATDDnBkBMMOcGQE8zHnARLSfBpp/Mt+JiT8Lct+J182ul8Cz7opG8KXHKiQE4w5AQT9rmgT04UwvlGML/XyX3z1erOo2nzhflJsZnu79gtciaffiptujkZxRIj8WQZBLL07rtzjHEr7LxX7HJ3d9fxtOnmJH6yLMueGzMoLR6Gv6G8Mz9xTbM/6LzX0DfZ+K7jadPRiSWmGT41ZjbMN/PwQ/OOaMP9T5x4mWZj/4+TxLFjvcZ+ihOXMeafjFlflCwNwycon1QnB5+7etPJD3GyfJ4IIiPLodyuVrLMFScrzk1ujXQa+yFO3mcmZhOT5Tqb/uNOlo9AbGRnKHfGQJYvQTCEchgGL1CeRffwIOKY/Tfi7Cqs0tdrJ8FqdTuxbVUgJ8Hq1W3l4eqPYaibRuk5Obi+79sTI+6L0oL8BEpTxBNR+k9JkFpQLg3jxQEn/uMrDY2GecpP63EcXDlJvMkmTTcT73peD+PtZi4qdtWmQ9Z2spvzZdPIVjQyzXeNai+di+ogjjacp+sHrTlRz4k4ETEitq/OO8GJi9K+OGGTmXd+jIur+55sLV+EG86ZlXqqk9XBsphoQlT4h9btfGFQAXtYUYidjNaWuNbyMMGh2pZbzrhqJHzibGrsUlEBgY653hc42cuxYzLbER3Jdg9q8r53mHnBzs2Lkyx1eP09d+ZNhE42VlPBzOLayaML1VwKGJyUbf10VjoT4S3dWJej8s0XOBn0TQX+pOQqcR96gm+7rgXN8YuTTBphQqEtK9isVjKXny3bLnuRk7ScZPJi+ZN8/Bnxsp/V21rL2ok8EjRiM87Wn+bkYEP82JbxxDmV8cRPlXgCZR9OI2eqE+W2FHBPGXsostHyubpz0snAl9ewXWajInLqaxcEJwYV+T7LlhETf9szJcYGQ3BsOidpMJQi/EmcZceIw35Po9pJ3UgxnG50Aoqek/gB2BnFGMqDMSrLYCXLcRgcZAkHzBQn3G1OIZiLk7aeqwBy5Pzi5FnswaZV38im/mUufxCxiZ2qikHu2vOgcZJNZSdxD2UwiaCR+ooHudiTry9O+HxmdOCT85PVPr8MapM5RVMDk7TTBMckrcdOIUYbW1+icbAWV+fCjomo4GkTkGIP/q6cHGTwsGpjmd1qxNhCr9rXY6fjopdmfuK9z8vwIVrbZZyTU4s9UbMPEXFaAU4GEXACp28qoThMZegyjLMvRhHKiMHJQ3Zy5Ig41N8+MLGtOmFNxeHyyslb2dIt9JxsXes9HDHRsKqP8Gmej71WjjqyyhjcAL1dOFlBTDirFTCdz4WkDb+VsYoYy+fyQPzUXKsYiv6LutlSHM9dSSdScBf0nIzVwPku3MEpu5ij+amVrhSWdJKJwm9tPxARxR0ZiZgvLBwHRD8xy76YNs3JYbaNVGDwFNKJXaBG3kbPyYPfxQl7xi2Im8/bXydlzlbY17IMcc1wOWLocBwIhn45OMVhosuXMjfgTAWizV46sboueek5OXdy4t6I8qKFqz4clE6WNiQ8LUTosY5ytKX4AahMlRj0FXtYf1nmS9dYMTjhZtdFXz0nR+vWMV+B38qLdjf7iZ280U+cV/sJy0cyRNt1pp7hfsKYL2IrOEn/jpOR06Wb3Bq/wiqfX8cTON3MQfFEfGMP5Gx9K56wssMd+8qhyngybnMojL/pxDjxd1XU3A7zYLU974g5GGbLIO0479R5rGfDbFxNPSK+sDPa9u86ibQnHm7fDmnzq/xkJq7cgSUFcKMO+aTOT8TV31ixa9ZPhiAlLY8G+cmtl0V/00lxM4jdwnpl6QRuq9PMFDAyuA9nO4M8dnOVx8KYkQNCsbXfKXksEFmQ+8s9yzy2SdqKY1m2nYR6L2N1c3umOXhef/AUmaXp5NV9LyC1t8p5Y9t63gElfhmNhxZIqa/u2bVPRnudDZ43q4l/DKF3Wo2kJO/3y69VJ7PD/qz1SkHXyU5v5rmRjNfIuYH50b4odmt4BKj1hal8Lp7ERRE/y2dks3ou3sgsY70rZvFWPhdnbSerKas7X5DCs7D/HM+y5Vg8F3M7vHISbpfn41DnYVDXSaAXZd3j600Udr3CUa6XbOquPjBlzlEvfbC09hqW6ydOvSbCwqs1JanTlsG1XGtpGinHlOJkv/fO4+RgvI/2c/FeJ6K8/XZ76TcjkNt5M7hbS2TWvJmZk1NzVO6bcJPba9SZTBKk3ERdTvPTchgpOVux845RdmtyutuJsX0/l7Vf3m4ijBynXBeF9ViVIZMrpqKCD1sVO7Nej63WWD2X20oYF52P1dnuELaVrTtR9dUK1mOrv8dxsJzozEH6ToLpO/Mxd99RIhjs8lOaTqP99QwQehNRcdp61ycd7COoeL6sxW/9XN05NqeXtGcVb6dpuomUxf+Yp5cU0ju8aL3O6LCmlKRvSuG23ivRQPChitV17dW2b1Vr0WWdLdy8keJbp44rN9+XTmuPQdR/ZfZh/eHP+TF1x/XYozJDNKPGt7bdX/x+XzqvUe/X5euZ2gf33flB63cE/wx3rNsncZQ68Ls2WIVl+eP1G9B/njvfZaxGs2K5LGY/7NfCJfT/OxhygiEnGHKCIScYcoIhJxhygiEnGHKCIScYcoIhJxhygiEnGHKCIScYcoIhJxhygiEnGHKCIScYcoIhJxhygiEnGHKCIScYcoIhJxhygiEnGHKCIScYcoIhJxhygiEnGHKCIScYcoIhJxhygiEnGHKCIScYcoIhJxhygiEnGHKCIScYcoIhJxhygiEnGHKCIScYcoIhJ5iesVh89Tl8M0DIr68+iW8GDJwFjR6VctzQ6FGpeghJudAMmsUvsgIseovWJ6JXG/kDuvCbPM+dXFcAAAAASUVORK5CYII=;" vertex="1" parent="1">
          <mxGeometry x="470" y="400" width="120.22" height="80" as="geometry" />
        </mxCell>
        <mxCell id="Lb4S4Lgipoe_CazuFKkx-41" value="" style="shape=image;verticalLabelPosition=bottom;labelBackgroundColor=default;verticalAlign=top;aspect=fixed;imageAspect=0;image=data:image/png,iVBORw0KGgoAAAANSUhEUgAAARMAAAC3CAMAAAAGjUrGAAAAkFBMVEX///8dY+3y8vQAWuwAV+wOXu0AW+wAVeylvfcYYe0AVOzj6fyIqPTc5/wLXe1/nfP5+//x9f5ymPOYr/VulPKvwPdjifHp7v00cO7M2vslae75+frE0Pn09/4bZe3x8fMAT+tFeu88de/V4PtQgfBjjvKbtfa2yfjH1fqBovO5yvhVhPAube6QrfUASOuasvUMpWOeAAAJRElEQVR4nO2b63qiMBBAQQgQLxQsiFe2Cipa3b7/220mgATHtsF2v3a7c/6kGghwSCZDsIYhWfSIXm9hNCx+qZ/+XxaNlQUZqVn0qpKUKEgppKSF1PHrq8/im9GjboIQQnpffQ7fjh45QZATDDnBkBMMOcGQEww5wZATDDnBkBMMOcGQEww5wZATDDnBkBMMOcGQEww5wZATDDnBkBMMOcGQEww5wZATDDnBkBMMOcGQEww5wZATDDnBkBMMOcGQEww5wZATDDnBkBMMOcGQEww5wZATDDnBkBMMOcGQEww5wZATDDnBkBMMOcGQEww5wZATDDnBkBMMOcGQE8zHnARLSfBpp/Mt+JiT8Lct+J182ul8Cz7opG8KXHKiQE4w5AQT9rmgT04UwvlGML/XyX3z1erOo2nzhflJsZnu79gtciaffiptujkZxRIj8WQZBLL07rtzjHEr7LxX7HJ3d9fxtOnmJH6yLMueGzMoLR6Gv6G8Mz9xTbM/6LzX0DfZ+K7jadPRiSWmGT41ZjbMN/PwQ/OOaMP9T5x4mWZj/4+TxLFjvcZ+ihOXMeafjFlflCwNwycon1QnB5+7etPJD3GyfJ4IIiPLodyuVrLMFScrzk1ujXQa+yFO3mcmZhOT5Tqb/uNOlo9AbGRnKHfGQJYvQTCEchgGL1CeRffwIOKY/Tfi7Cqs0tdrJ8FqdTuxbVUgJ8Hq1W3l4eqPYaibRuk5Obi+79sTI+6L0oL8BEpTxBNR+k9JkFpQLg3jxQEn/uMrDY2GecpP63EcXDlJvMkmTTcT73peD+PtZi4qdtWmQ9Z2spvzZdPIVjQyzXeNai+di+ogjjacp+sHrTlRz4k4ETEitq/OO8GJi9K+OGGTmXd+jIur+55sLV+EG86ZlXqqk9XBsphoQlT4h9btfGFQAXtYUYidjNaWuNbyMMGh2pZbzrhqJHzibGrsUlEBgY653hc42cuxYzLbER3Jdg9q8r53mHnBzs2Lkyx1eP09d+ZNhE42VlPBzOLayaML1VwKGJyUbf10VjoT4S3dWJej8s0XOBn0TQX+pOQqcR96gm+7rgXN8YuTTBphQqEtK9isVjKXny3bLnuRk7ScZPJi+ZN8/Bnxsp/V21rL2ok8EjRiM87Wn+bkYEP82JbxxDmV8cRPlXgCZR9OI2eqE+W2FHBPGXsostHyubpz0snAl9ewXWajInLqaxcEJwYV+T7LlhETf9szJcYGQ3BsOidpMJQi/EmcZceIw35Po9pJ3UgxnG50Aoqek/gB2BnFGMqDMSrLYCXLcRgcZAkHzBQn3G1OIZiLk7aeqwBy5Pzi5FnswaZV38im/mUufxCxiZ2qikHu2vOgcZJNZSdxD2UwiaCR+ooHudiTry9O+HxmdOCT85PVPr8MapM5RVMDk7TTBMckrcdOIUYbW1+icbAWV+fCjomo4GkTkGIP/q6cHGTwsGpjmd1qxNhCr9rXY6fjopdmfuK9z8vwIVrbZZyTU4s9UbMPEXFaAU4GEXACp28qoThMZegyjLMvRhHKiMHJQ3Zy5Ig41N8+MLGtOmFNxeHyyslb2dIt9JxsXes9HDHRsKqP8Gmej71WjjqyyhjcAL1dOFlBTDirFTCdz4WkDb+VsYoYy+fyQPzUXKsYiv6LutlSHM9dSSdScBf0nIzVwPku3MEpu5ij+amVrhSWdJKJwm9tPxARxR0ZiZgvLBwHRD8xy76YNs3JYbaNVGDwFNKJXaBG3kbPyYPfxQl7xi2Im8/bXydlzlbY17IMcc1wOWLocBwIhn45OMVhosuXMjfgTAWizV46sboueek5OXdy4t6I8qKFqz4clE6WNiQ8LUTosY5ytKX4AahMlRj0FXtYf1nmS9dYMTjhZtdFXz0nR+vWMV+B38qLdjf7iZ280U+cV/sJy0cyRNt1pp7hfsKYL2IrOEn/jpOR06Wb3Bq/wiqfX8cTON3MQfFEfGMP5Gx9K56wssMd+8qhyngybnMojL/pxDjxd1XU3A7zYLU974g5GGbLIO0479R5rGfDbFxNPSK+sDPa9u86ibQnHm7fDmnzq/xkJq7cgSUFcKMO+aTOT8TV31ixa9ZPhiAlLY8G+cmtl0V/00lxM4jdwnpl6QRuq9PMFDAyuA9nO4M8dnOVx8KYkQNCsbXfKXksEFmQ+8s9yzy2SdqKY1m2nYR6L2N1c3umOXhef/AUmaXp5NV9LyC1t8p5Y9t63gElfhmNhxZIqa/u2bVPRnudDZ43q4l/DKF3Wo2kJO/3y69VJ7PD/qz1SkHXyU5v5rmRjNfIuYH50b4odmt4BKj1hal8Lp7ERRE/y2dks3ou3sgsY70rZvFWPhdnbSerKas7X5DCs7D/HM+y5Vg8F3M7vHISbpfn41DnYVDXSaAXZd3j600Udr3CUa6XbOquPjBlzlEvfbC09hqW6ydOvSbCwqs1JanTlsG1XGtpGinHlOJkv/fO4+RgvI/2c/FeJ6K8/XZ76TcjkNt5M7hbS2TWvJmZk1NzVO6bcJPba9SZTBKk3ERdTvPTchgpOVux845RdmtyutuJsX0/l7Vf3m4ijBynXBeF9ViVIZMrpqKCD1sVO7Nej63WWD2X20oYF52P1dnuELaVrTtR9dUK1mOrv8dxsJzozEH6ToLpO/Mxd99RIhjs8lOaTqP99QwQehNRcdp61ycd7COoeL6sxW/9XN05NqeXtGcVb6dpuomUxf+Yp5cU0ju8aL3O6LCmlKRvSuG23ivRQPChitV17dW2b1Vr0WWdLdy8keJbp44rN9+XTmuPQdR/ZfZh/eHP+TF1x/XYozJDNKPGt7bdX/x+XzqvUe/X5euZ2gf33flB63cE/wx3rNsncZQ68Ls2WIVl+eP1G9B/njvfZaxGs2K5LGY/7NfCJfT/OxhygiEnGHKCIScYcoIhJxhygiEnGHKCIScYcoIhJxhygiEnGHKCIScYcoIhJxhygiEnGHKCIScYcoIhJxhygiEnGHKCIScYcoIhJxhygiEnGHKCIScYcoIhJxhygiEnGHKCIScYcoIhJxhygiEnGHKCIScYcoIhJxhygiEnGHKCIScYcoIhJxhygiEnGHKCIScYcoIhJ5iesVh89Tl8M0DIr68+iW8GDJwFjR6VctzQ6FGpeghJudAMmsUvsgIseovWJ6JXG/kDuvCbPM+dXFcAAAAASUVORK5CYII=;" vertex="1" parent="1">
          <mxGeometry x="470" y="-470" width="120.22" height="80" as="geometry" />
        </mxCell>
      </root>
    </mxGraphModel>
  </diagram>
</mxfile>
